<?xml version="1.0" standalone="no"?>
<!DOCTYPE svg PUBLIC "-//W3C//DTD SVG 20010904//EN"
 "http://www.w3.org/TR/2001/REC-SVG-20010904/DTD/svg10.dtd">
<svg version="1.0" xmlns="http://www.w3.org/2000/svg"
 width="30.000000pt" height="30.000000pt" viewBox="0 0 30.000000 30.000000"
 preserveAspectRatio="xMidYMid meet">

<g transform="translate(0.000000,30.000000) scale(0.100000,-0.100000)"
fill="#000000" stroke="none">
<path d="M20 220 c0 -6 50 -10 130 -10 80 0 130 4 130 10 0 6 -50 10 -130 10
-80 0 -130 -4 -130 -10z"/>
<path d="M20 150 c0 -6 50 -10 130 -10 80 0 130 4 130 10 0 6 -50 10 -130 10
-80 0 -130 -4 -130 -10z"/>
<path d="M20 80 c0 -6 50 -10 130 -10 80 0 130 4 130 10 0 6 -50 10 -130 10
-80 0 -130 -4 -130 -10z"/>
</g>
</svg>
