<svg xmlns="http://www.w3.org/2000/svg"  viewBox="0 0 80 80" width="30px" height="30px"><path fill="#8bb7f0" d="M8,65.5c-3.032,0-5.5-2.467-5.5-5.5V20c0-3.033,2.468-5.5,5.5-5.5h64c3.032,0,5.5,2.467,5.5,5.5v40 c0,3.033-2.468,5.5-5.5,5.5H8z"/><path fill="#4e7ab5" d="M72,15c2.757,0,5,2.243,5,5v40c0,2.757-2.243,5-5,5H8c-2.757,0-5-2.243-5-5V20c0-2.757,2.243-5,5-5 H72 M72,14H8c-3.314,0-6,2.686-6,6v40c0,3.314,2.686,6,6,6h64c3.314,0,6-2.686,6-6V20C78,16.686,75.314,14,72,14L72,14z"/><path fill="#fff" d="M24.2 30.002l-4.802 14.239c0 0-1.194-5.823-1.315-6.579-2.734-6.201-6.794-6.056-6.794-6.056L16.045 50v-.004h5.78l7.993-19.995H24.2zM28.777 50L34.027 50 37.202 30.002 31.886 30.002zM65.933 30.002h-5.524L51.796 50h5.215l1.075-2.856h6.576L65.222 50H70L65.933 30.002zM59.542 43.324l2.858-7.557 1.496 7.557H59.542zM44.65 35.83c0-1.102.911-1.922 3.522-1.922 1.697 0 3.641 1.225 3.641 1.225l.852-4.198c0 0-2.483-.936-4.921-.936-5.521 0-8.368 2.625-8.368 5.949 0 6.01 7.276 5.187 7.276 8.274 0 .529-.422 1.753-3.452 1.753-3.039 0-5.045-1.107-5.045-1.107l-.905 4.029c0 0 1.944 1.102 5.7 1.102 3.765 0 8.988-2.8 8.988-6.821C51.937 38.339 44.65 37.99 44.65 35.83z"/><g><path fill="#ffeea3" d="M18.723,40.883l-1.728-8.705c0,0-0.799-1.871-2.876-1.871s-8.119,0-8.119,0 S16.313,33.42,18.723,40.883z"/></g></svg>